<?xml version="1.0" encoding="UTF-8"?>
<svg width="258px" height="61px" viewBox="0 0 258 61" version="1.1" xmlns="http://www.w3.org/2000/svg" xmlns:xlink="http://www.w3.org/1999/xlink">
    <!-- Generator: Sketch 47 (45396) - http://www.bohemiancoding.com/sketch -->
    <title>logo</title>
    <desc>Created with Sketch.</desc>
    <defs>
        <polygon id="path-1" points="0 60.9274437 257.228969 60.9274437 257.228969 0 0 0"/>
    </defs>
    <g id="Page-1" stroke="none" stroke-width="1" fill="none" fill-rule="evenodd">
        <g id="index" transform="translate(-240.000000, -64.000000)">
            <g id="head">
                <g id="menutop">
                    <g id="logo" transform="translate(240.000000, 64.000000)">
                        <g>
                            <path d="M254.116289,2.44464194 L254.522059,2.44464194 C254.6072,2.44464194 254.69342,2.44086985 254.778561,2.43440339 C254.864242,2.4268592 254.9413,2.40961533 255.009737,2.3805163 C255.079251,2.35195614 255.134755,2.30938533 255.177326,2.25280388 C255.220436,2.19514469 255.241451,2.11754728 255.241451,2.01731728 C255.241451,1.91762615 255.220436,1.838951 255.177326,1.78236955 C255.134755,1.72471036 255.079251,1.68213955 255.009737,1.65411826 C254.9413,1.6255581 254.864242,1.6088531 254.778561,1.60400326 C254.69342,1.5996923 254.6072,1.59699794 254.522059,1.59699794 L254.116289,1.59699794 L254.116289,2.44464194 Z M253.561252,1.12710247 L254.728985,1.12710247 C255.09434,1.12710247 255.363775,1.20523876 255.537292,1.36205021 C255.710808,1.51886165 255.797566,1.74410971 255.797566,2.03833325 C255.797566,2.3045355 255.728591,2.50391775 255.592256,2.63648 C255.455922,2.77011999 255.284561,2.84825628 255.077635,2.8719666 L255.861153,4.15394059 L255.277017,4.15394059 L254.522059,2.91453741 L254.116289,2.91453741 L254.116289,4.15394059 L253.561252,4.15394059 L253.561252,1.12710247 Z M252.399446,2.65857371 C252.399446,2.95764708 252.457105,3.24055433 252.570268,3.50567884 C252.684509,3.77188109 252.840243,4.00359559 253.037469,4.20028349 C253.233618,4.39751026 253.465872,4.55270509 253.731535,4.66694573 C253.997737,4.7806475 254.280106,4.83830669 254.579179,4.83830669 C254.878252,4.83830669 255.160621,4.7806475 255.427362,4.66694573 C255.692486,4.55270509 255.923662,4.39751026 256.121428,4.20028349 C256.318116,4.00359559 256.473849,3.77188109 256.58809,3.50567884 C256.701792,3.24055433 256.758373,2.95764708 256.758373,2.65857371 C256.758373,2.35950033 256.701792,2.07605421 256.58809,1.81092971 C256.473849,1.54472746 256.318116,1.31301295 256.121428,1.11632506 C255.923662,0.919098289 255.692486,0.764442327 255.427362,0.650201686 C255.160621,0.535961045 254.878252,0.478840724 254.579179,0.478840724 C254.280106,0.478840724 253.997737,0.535961045 253.731535,0.650201686 C253.465872,0.764442327 253.233618,0.919098289 253.037469,1.11632506 C252.840243,1.31301295 252.684509,1.54472746 252.570268,1.81092971 C252.457105,2.07605421 252.399446,2.35950033 252.399446,2.65857371 Z M251.929551,2.65857371 C251.929551,2.29268033 251.999604,1.94941954 252.13971,1.6293302 C252.279817,1.30870198 252.469499,1.02848909 252.709836,0.78923039 C252.949094,0.548893947 253.229307,0.358672503 253.549936,0.218566056 C253.870564,0.07845961 254.213286,0.00894525773 254.579179,0.00894525773 C254.944534,0.00894525773 255.287794,0.07845961 255.608961,0.218566056 C255.929051,0.358672503 256.209264,0.548893947 256.449061,0.78923039 C256.68832,1.02848909 256.878541,1.30870198 257.019187,1.6293302 C257.158754,1.94941954 257.228808,2.29268033 257.228808,2.65857371 C257.228808,3.02392821 257.158754,3.36772788 257.019187,3.68781722 C256.878541,4.00790656 256.68832,4.28865833 256.449061,4.5284559 C256.209264,4.76825347 255.929051,4.95793604 255.608961,5.09804249 C255.287794,5.23814894 254.944534,5.30712442 254.579179,5.30712442 C254.213286,5.30712442 253.870564,5.23814894 253.549936,5.09804249 C253.229307,4.95793604 252.949094,4.76825347 252.709836,4.5284559 C252.469499,4.28865833 252.279817,4.00790656 252.13971,3.68781722 C251.999604,3.36772788 251.929551,3.02392821 251.929551,2.65857371 Z" id="Fill-1" fill="#001A71"/>
                            <mask id="mask-2" fill="white">
                                <use xlink:href="#path-1"/>
                            </mask>
                            <g id="Clip-4"/>
                            <polygon id="Fill-3" fill="#001A71" mask="url(#mask-2)" points="72.6511201 55.4417375 73.9869811 55.4417375 73.9869811 49.3794393 72.6511201 49.3794393"/>
                            <polygon id="Fill-5" fill="#001A71" mask="url(#mask-2)" points="75.2027279 49.3795471 77.0176452 49.3795471 79.595065 53.5919013 79.6123089 53.5919013 79.6123089 49.3795471 80.9481699 49.3795471 80.9481699 55.4418452 79.2011503 55.4418452 76.555294 51.1260278 76.538589 51.1260278 76.538589 55.4418452 75.2027279 55.4418452"/>
                            <polygon id="Fill-6" fill="#001A71" mask="url(#mask-2)" points="82.1812144 49.3795471 83.9961318 49.3795471 86.5735515 53.5919013 86.5907954 53.5919013 86.5907954 49.3795471 87.9266565 49.3795471 87.9266565 55.4418452 86.1796369 55.4418452 83.5337805 51.1260278 83.5170755 51.1260278 83.5170755 55.4418452 82.1812144 55.4418452"/>
                            <path d="M90.2211151,52.4106962 C90.2211151,52.6957589 90.2653025,52.9576502 90.3536773,53.1942145 C90.4420522,53.4313177 90.5692257,53.6366276 90.7346591,53.8106829 C90.9006314,53.9847382 91.0989359,54.1205337 91.3301115,54.2175304 C91.5612871,54.3145272 91.8194063,54.3630256 92.1050079,54.3630256 C92.3900707,54.3630256 92.6487287,54.3145272 92.8799043,54.2175304 C93.11108,54.1205337 93.3093845,53.9847382 93.4748179,53.8106829 C93.6407901,53.6366276 93.7674248,53.4313177 93.8557996,53.1942145 C93.9441745,52.9576502 93.9889008,52.6957589 93.9889008,52.4106962 C93.9889008,52.1310221 93.9441745,51.8712863 93.8557996,51.6314888 C93.7674248,51.3916912 93.6407901,51.1853036 93.4748179,51.0107094 C93.3093845,50.8366541 93.11108,50.7008586 92.8799043,50.6038619 C92.6487287,50.5068651 92.3900707,50.4583667 92.1050079,50.4583667 C91.8194063,50.4583667 91.5612871,50.5068651 91.3301115,50.6038619 C91.0989359,50.7008586 90.9006314,50.8366541 90.7346591,51.0107094 C90.5692257,51.1853036 90.4420522,51.3916912 90.3536773,51.6314888 C90.2653025,51.8712863 90.2211151,52.1310221 90.2211151,52.4106962 M88.8340613,52.4106962 C88.8340613,51.9257123 88.9154308,51.4859936 89.0781698,51.092079 C89.2409088,50.6981643 89.4677735,50.3629866 89.7593027,50.0860069 C90.050293,49.8090272 90.3951704,49.5961732 90.7944738,49.4479837 C91.1948549,49.2997942 91.6308015,49.22543 92.1050079,49.22543 C92.5786755,49.22543 93.0156998,49.2997942 93.4150032,49.4479837 C93.8148454,49.5961732 94.1602617,49.8090272 94.451252,50.0860069 C94.7422423,50.3629866 94.9696459,50.6981643 95.131846,51.092079 C95.2945851,51.4859936 95.3759546,51.9257123 95.3759546,52.4106962 C95.3759546,52.89568 95.2945851,53.3353987 95.131846,53.7293134 C94.9696459,54.123228 94.7422423,54.4589446 94.451252,54.7353854 C94.1602617,55.0123651 93.8148454,55.2252191 93.4150032,55.3734086 C93.0156998,55.5215981 92.5786755,55.5959623 92.1050079,55.5959623 C91.6308015,55.5959623 91.1948549,55.5215981 90.7944738,55.3734086 C90.3951704,55.2252191 90.050293,55.0123651 89.7593027,54.7353854 C89.4677735,54.4589446 89.2409088,54.123228 89.0781698,53.7293134 C88.9154308,53.3353987 88.8340613,52.89568 88.8340613,52.4106962" id="Fill-7" fill="#001A71" mask="url(#mask-2)"/>
                            <polygon id="Fill-8" fill="#001A71" mask="url(#mask-2)" points="95.684566 49.3795471 97.208493 49.3795471 98.7065542 53.3526426 98.724337 53.3526426 100.248264 49.3795471 101.677889 49.3795471 99.1775275 55.4418452 98.1073297 55.4418452"/>
                            <path d="M104.349611,51.1434872 L103.613513,53.0268412 L105.094869,53.0268412 L104.349611,51.1434872 Z M103.836067,49.3797626 L104.940752,49.3797626 L107.577448,55.4420608 L106.070765,55.4420608 L105.548599,54.1573925 L103.193194,54.1573925 L102.688272,55.4420608 L101.216076,55.4420608 L103.836067,49.3797626 Z" id="Fill-9" fill="#001A71" mask="url(#mask-2)"/>
                            <polygon id="Fill-10" fill="#001A71" mask="url(#mask-2)" points="108.571126 50.5609677 106.84135 50.5609677 106.84135 49.3797626 111.636224 49.3797626 111.636224 50.5609677 109.906987 50.5609677 109.906987 55.4420608 108.571126 55.4420608"/>
                            <polygon id="Fill-11" fill="#001A71" mask="url(#mask-2)" points="112.295317 55.4417375 113.631178 55.4417375 113.631178 49.3794393 112.295317 49.3794393"/>
                            <polygon id="Fill-12" fill="#001A71" mask="url(#mask-2)" points="114.248239 49.3795471 115.772166 49.3795471 117.270227 53.3526426 117.28801 53.3526426 118.811937 49.3795471 120.241562 49.3795471 117.741201 55.4418452 116.671003 55.4418452"/>
                            <polygon id="Fill-13" fill="#001A71" mask="url(#mask-2)" points="120.926736 49.3795471 125.045866 49.3795471 125.045866 50.6124838 122.262597 50.6124838 122.262597 51.7430351 124.89121 51.7430351 124.89121 52.9759718 122.262597 52.9759718 122.262597 54.2089085 125.199983 54.2089085 125.199983 55.4418452 120.926736 55.4418452"/>
                            <path d="M126.338078,54.3899153 C126.338078,54.2352593 126.366638,54.0881475 126.42322,53.9496577 C126.480879,53.8111679 126.560093,53.6904608 126.662478,53.5886142 C126.763786,53.4867676 126.884493,53.4075535 127.022983,53.3498943 C127.161473,53.2933129 127.308585,53.2642139 127.463241,53.2642139 C127.617897,53.2642139 127.76447,53.2933129 127.903498,53.3498943 C128.041988,53.4075535 128.162695,53.4867676 128.264542,53.5886142 C128.366388,53.6904608 128.445602,53.8111679 128.503262,53.9496577 C128.559843,54.0881475 128.588942,54.2352593 128.588942,54.3899153 C128.588942,54.5451101 128.559843,54.691683 128.503262,54.8301728 C128.445602,54.9686627 128.366388,55.0893698 128.264542,55.1906775 C128.162695,55.293063 128.041988,55.3728159 127.903498,55.4299362 C127.76447,55.4865176 127.617897,55.5150778 127.463241,55.5150778 C127.308585,55.5150778 127.161473,55.4865176 127.022983,55.4299362 C126.884493,55.3728159 126.763786,55.293063 126.662478,55.1906775 C126.560093,55.0893698 126.480879,54.9686627 126.42322,54.8301728 C126.366638,54.691683 126.338078,54.5451101 126.338078,54.3899153" id="Fill-14" fill="#001A71" mask="url(#mask-2)"/>
                            <path d="M138.999444,55.0134967 C138.606068,55.2193454 138.19491,55.3675349 137.766507,55.459143 C137.338644,55.5502122 136.901619,55.5960162 136.456512,55.5960162 C135.982305,55.5960162 135.546359,55.521652 135.146517,55.3734625 C134.746674,55.225273 134.401797,55.012419 134.110807,54.7354393 C133.819277,54.4589985 133.592413,54.1232819 133.429674,53.7293673 C133.266935,53.3354526 133.185565,52.8957339 133.185565,52.41075 C133.185565,51.9257662 133.266935,51.4860475 133.429674,51.0921328 C133.592413,50.6982182 133.819277,50.3630404 134.110807,50.0855219 C134.401797,49.8090811 134.746674,49.5962271 135.146517,49.4480376 C135.546359,49.2993092 135.982305,49.2254839 136.456512,49.2254839 C136.942035,49.2254839 137.388759,49.2836819 137.796684,49.4011558 C138.204609,49.5180908 138.562958,49.7190897 138.871193,50.0046913 L137.929785,51.0317793 C137.746569,50.8437133 137.541259,50.7009125 137.312778,50.6039158 C137.084297,50.506919 136.799234,50.4584206 136.456512,50.4584206 C136.17091,50.4584206 135.912791,50.506919 135.681615,50.6039158 C135.45044,50.7009125 135.252135,50.836708 135.086163,51.0107633 C134.921269,51.1853575 134.793556,51.3917451 134.705181,51.6315427 C134.616806,51.8713402 134.572619,52.131076 134.572619,52.41075 C134.572619,52.6958128 134.616806,52.9577041 134.705181,53.1942684 C134.793556,53.4308328 134.921269,53.6366815 135.086163,53.8107368 C135.252135,53.9847921 135.45044,54.1205876 135.681615,54.2170455 C135.912791,54.3145811 136.17091,54.3630795 136.456512,54.3630795 C136.747502,54.3630795 136.998616,54.3302084 137.210392,54.2644661 C137.421091,54.1987239 137.589757,54.131365 137.715314,54.0629284 L137.715314,53.0784112 L136.627873,53.0784112 L136.627873,51.8454744 L138.999444,51.8454744 L138.999444,55.0134967 Z" id="Fill-15" fill="#001A71" mask="url(#mask-2)"/>
                            <polygon id="Fill-16" fill="#001A71" mask="url(#mask-2)" points="140.224028 49.3795471 141.559889 49.3795471 141.559889 54.2089085 144.034385 54.2089085 144.034385 55.4418452 140.224028 55.4418452"/>
                            <path d="M145.832166,52.4106962 C145.832166,52.6957589 145.876353,52.9576502 145.964728,53.1942145 C146.053103,53.4313177 146.180276,53.6366276 146.34571,53.8106829 C146.511682,53.9847382 146.709987,54.1205337 146.941162,54.2175304 C147.172338,54.3145272 147.430457,54.3630256 147.716059,54.3630256 C148.001121,54.3630256 148.259779,54.3145272 148.490955,54.2175304 C148.722131,54.1205337 148.920435,53.9847382 149.085869,53.8106829 C149.251841,53.6366276 149.378476,53.4313177 149.46685,53.1942145 C149.555225,52.9576502 149.599951,52.6957589 149.599951,52.4106962 C149.599951,52.1310221 149.555225,51.8712863 149.46685,51.6314888 C149.378476,51.3916912 149.251841,51.1853036 149.085869,51.0107094 C148.920435,50.8366541 148.722131,50.7008586 148.490955,50.6038619 C148.259779,50.5068651 148.001121,50.4583667 147.716059,50.4583667 C147.430457,50.4583667 147.172338,50.5068651 146.941162,50.6038619 C146.709987,50.7008586 146.511682,50.8366541 146.34571,51.0107094 C146.180276,51.1853036 146.053103,51.3916912 145.964728,51.6314888 C145.876353,51.8712863 145.832166,52.1310221 145.832166,52.4106962 M144.445112,52.4106962 C144.445112,51.9257123 144.526482,51.4859936 144.689221,51.092079 C144.85196,50.6981643 145.078824,50.3629866 145.370353,50.0860069 C145.661344,49.8090272 146.006221,49.5961732 146.405524,49.4479837 C146.805906,49.2997942 147.241852,49.22543 147.716059,49.22543 C148.189726,49.22543 148.626751,49.2997942 149.026054,49.4479837 C149.425896,49.5961732 149.771312,49.8090272 150.062303,50.0860069 C150.353293,50.3629866 150.580697,50.6981643 150.742897,51.092079 C150.905636,51.4859936 150.987005,51.9257123 150.987005,52.4106962 C150.987005,52.89568 150.905636,53.3353987 150.742897,53.7293134 C150.580697,54.123228 150.353293,54.4589446 150.062303,54.7353854 C149.771312,55.0123651 149.425896,55.2252191 149.026054,55.3734086 C148.626751,55.5215981 148.189726,55.5959623 147.716059,55.5959623 C147.241852,55.5959623 146.805906,55.5215981 146.405524,55.3734086 C146.006221,55.2252191 145.661344,55.0123651 145.370353,54.7353854 C145.078824,54.4589446 144.85196,54.123228 144.689221,53.7293134 C144.526482,53.3353987 144.445112,52.89568 144.445112,52.4106962" id="Fill-17" fill="#001A71" mask="url(#mask-2)"/>
                            <path d="M153.230594,54.3114557 L154.429582,54.3114557 C154.531968,54.3114557 154.63597,54.3001394 154.742127,54.2775068 C154.847207,54.2548742 154.943126,54.2144589 155.028807,54.1573386 C155.114487,54.1002182 155.184002,54.0263929 155.238967,53.9347849 C155.292315,53.8437157 155.319797,53.7321694 155.319797,53.6012237 C155.319797,53.4584229 155.284232,53.3425657 155.213101,53.2541909 C155.141431,53.165816 155.051439,53.0984572 154.943126,53.0526531 C154.834813,53.007388 154.717339,52.9755946 154.591783,52.9583507 C154.466226,52.9416457 154.349291,52.9324849 154.240978,52.9324849 L153.230594,52.9324849 L153.230594,54.3114557 Z M153.230594,51.8030114 L154.198407,51.8030114 C154.300792,51.8030114 154.4021,51.7911562 154.501791,51.7685237 C154.602021,51.7453522 154.692012,51.708709 154.771765,51.6569774 C154.851518,51.6057846 154.916183,51.537348 154.964681,51.4516675 C155.01318,51.3659871 155.037429,51.2636016 155.037429,51.1434334 C155.037429,51.0178764 155.010485,50.9133355 154.956059,50.8308882 C154.901633,50.7484409 154.832119,50.6843153 154.746438,50.6385113 C154.660219,50.5927072 154.563761,50.5598361 154.454909,50.5398979 C154.346057,50.5199597 154.240978,50.5097211 154.138592,50.5097211 L153.230594,50.5097211 L153.230594,51.8030114 Z M151.894733,49.3797087 L154.155297,49.3797087 C154.417727,49.3797087 154.681774,49.3980304 154.947437,49.4352124 C155.213101,49.4723945 155.450743,49.5462199 155.662519,49.6577662 C155.873218,49.7687736 156.045117,49.9245073 156.176063,50.1238895 C156.307548,50.3243495 156.372751,50.5900129 156.372751,50.9208797 C156.372751,51.2636016 156.277371,51.5470477 156.086072,51.7728346 C155.894772,51.9980827 155.642581,52.159744 155.328419,52.2567407 L155.328419,52.2739846 C155.52834,52.3020059 155.709401,52.3580485 155.87214,52.4404957 C156.034879,52.5234819 156.174446,52.6291006 156.29192,52.7573518 C156.408316,52.8856031 156.498308,53.0359481 156.561356,53.2067702 C156.624404,53.37867 156.655119,53.5608084 156.655119,53.7553408 C156.655119,54.0748913 156.587222,54.3416324 156.450348,54.5555642 C156.313475,54.7700348 156.136187,54.9424735 155.919022,55.0734192 C155.702396,55.2049037 155.458287,55.2992061 155.187235,55.3557876 C154.916183,55.4134467 154.646208,55.4420069 154.377851,55.4420069 L151.894733,55.4420069 L151.894733,49.3797087 Z" id="Fill-18" fill="#001A71" mask="url(#mask-2)"/>
                            <path d="M159.952309,51.1434872 L159.216211,53.0268412 L160.697568,53.0268412 L159.952309,51.1434872 Z M159.438765,49.3797626 L160.54345,49.3797626 L163.180146,55.4420608 L161.673463,55.4420608 L161.151297,54.1573925 L158.795892,54.1573925 L158.29097,55.4420608 L156.818774,55.4420608 L159.438765,49.3797626 Z" id="Fill-19" fill="#001A71" mask="url(#mask-2)"/>
                            <polygon id="Fill-20" fill="#001A71" mask="url(#mask-2)" points="163.839616 49.3795471 165.175477 49.3795471 165.175477 54.2089085 167.649973 54.2089085 167.649973 55.4418452 163.839616 55.4418452"/>
                            <path d="M168.454777,54.3899153 C168.454777,54.2352593 168.483337,54.0881475 168.539918,53.9496577 C168.597577,53.8111679 168.676791,53.6904608 168.779177,53.5886142 C168.880485,53.4867676 169.001192,53.4075535 169.139681,53.3498943 C169.278171,53.2933129 169.425283,53.2642139 169.579939,53.2642139 C169.734595,53.2642139 169.881168,53.2933129 170.020197,53.3498943 C170.158686,53.4075535 170.279394,53.4867676 170.38124,53.5886142 C170.483087,53.6904608 170.562301,53.8111679 170.61996,53.9496577 C170.676541,54.0881475 170.70564,54.2352593 170.70564,54.3899153 C170.70564,54.5451101 170.676541,54.691683 170.61996,54.8301728 C170.562301,54.9686627 170.483087,55.0893698 170.38124,55.1906775 C170.279394,55.293063 170.158686,55.3728159 170.020197,55.4299362 C169.881168,55.4865176 169.734595,55.5150778 169.579939,55.5150778 C169.425283,55.5150778 169.278171,55.4865176 169.139681,55.4299362 C169.001192,55.3728159 168.880485,55.293063 168.779177,55.1906775 C168.676791,55.0893698 168.597577,54.9686627 168.539918,54.8301728 C168.483337,54.691683 168.454777,54.5451101 168.454777,54.3899153" id="Fill-21" fill="#001A71" mask="url(#mask-2)"/>
                            <polygon id="Fill-22" fill="#001A71" mask="url(#mask-2)" points="175.627957 49.3795471 177.648723 49.3795471 179.044399 53.3353987 179.061104 53.3353987 180.46594 49.3795471 182.478085 49.3795471 182.478085 55.4418452 181.141685 55.4418452 181.141685 50.7924667 181.12498 50.7924667 179.532077 55.4418452 178.513072 55.4418452 176.980523 50.7924667 176.963818 50.7924667 176.963818 55.4418452 175.627957 55.4418452"/>
                            <path d="M186.219627,51.1434872 L185.48353,53.0268412 L186.964886,53.0268412 L186.219627,51.1434872 Z M185.706083,49.3797626 L186.810769,49.3797626 L189.447464,55.4420608 L187.940781,55.4420608 L187.418615,54.1573925 L185.06321,54.1573925 L184.558288,55.4420608 L183.086093,55.4420608 L185.706083,49.3797626 Z" id="Fill-23" fill="#001A71" mask="url(#mask-2)"/>
                            <polygon id="Fill-24" fill="#001A71" mask="url(#mask-2)" points="190.055903 49.3795471 191.870821 49.3795471 194.448241 53.5919013 194.465484 53.5919013 194.465484 49.3795471 195.801345 49.3795471 195.801345 55.4418452 194.054326 55.4418452 191.40847 51.1260278 191.391765 51.1260278 191.391765 55.4418452 190.055903 55.4418452"/>
                            <path d="M202.145796,53.104277 C202.145796,53.4637039 202.090832,53.7951095 201.982519,54.0974161 C201.874206,54.3997227 201.713083,54.6626917 201.499151,54.8852454 C201.284681,55.1077991 201.01794,55.2818545 200.698389,55.4074114 C200.378839,55.5329683 200.010251,55.5960162 199.594243,55.5960162 C199.171229,55.5960162 198.800486,55.5329683 198.480396,55.4074114 C198.160846,55.2818545 197.894105,55.1077991 197.680173,54.8852454 C197.465702,54.6626917 197.305119,54.3997227 197.196267,54.0974161 C197.087954,53.7951095 197.034067,53.4637039 197.034067,53.104277 L197.034067,49.379601 L198.369389,49.379601 L198.369389,53.0525453 C198.369389,53.2411502 198.399566,53.4152055 198.45938,53.5752502 C198.519734,53.7352948 198.603798,53.8737847 198.712111,53.9907197 C198.820424,54.1071158 198.950292,54.1987239 199.101714,54.2644661 C199.252598,54.3302084 199.416954,54.3630795 199.594243,54.3630795 C199.770992,54.3630795 199.933731,54.3302084 200.081921,54.2644661 C200.23011,54.1987239 200.3589,54.1071158 200.467213,53.9907197 C200.575527,53.8737847 200.65959,53.7352948 200.719944,53.5752502 C200.779759,53.4152055 200.809935,53.2411502 200.809935,53.0525453 L200.809935,49.379601 L202.145796,49.379601 L202.145796,53.104277 Z" id="Fill-25" fill="#001A71" mask="url(#mask-2)"/>
                            <polygon id="Fill-26" fill="#001A71" mask="url(#mask-2)" points="203.430303 49.3795471 207.497701 49.3795471 207.497701 50.6124838 204.766164 50.6124838 204.766164 51.8454205 207.292391 51.8454205 207.292391 53.0783573 204.766164 53.0783573 204.766164 55.4418452 203.430303 55.4418452"/>
                            <path d="M210.494039,51.1434872 L209.757941,53.0268412 L211.239298,53.0268412 L210.494039,51.1434872 Z M209.980495,49.3797626 L211.085181,49.3797626 L213.721876,55.4420608 L212.215193,55.4420608 L211.693027,54.1573925 L209.337622,54.1573925 L208.8327,55.4420608 L207.360505,55.4420608 L209.980495,49.3797626 Z" id="Fill-27" fill="#001A71" mask="url(#mask-2)"/>
                            <path d="M218.294519,50.955098 C218.163574,50.7950533 218.001912,50.6727296 217.811152,50.5865102 C217.619314,50.5008297 217.398377,50.4582589 217.147263,50.4582589 C216.89561,50.4582589 216.663357,50.5067573 216.449425,50.604293 C216.235493,50.7007509 216.049583,50.8365463 215.892772,51.0111405 C215.73596,51.1851959 215.612559,51.3921223 215.524184,51.631381 C215.435809,51.8711786 215.391622,52.1314532 215.391622,52.4105884 C215.391622,52.6956511 215.435809,52.9575424 215.524184,53.1941067 C215.612559,53.43121 215.734344,53.6370587 215.888461,53.8105751 C216.042578,53.9846304 216.223638,54.1204259 216.432181,54.2174227 C216.640724,54.3144194 216.864895,54.3629178 217.104153,54.3629178 C217.378439,54.3629178 217.620931,54.3063364 217.832707,54.1915569 C218.043406,54.0778551 218.217461,53.9178104 218.354334,53.7119617 L219.467641,54.5429007 C219.2106,54.9023277 218.885661,55.1674522 218.491207,55.339352 C218.097831,55.5101741 217.692601,55.5958546 217.275514,55.5958546 C216.801308,55.5958546 216.365361,55.5220292 215.965519,55.3733009 C215.566216,55.2251113 215.220799,55.0122573 214.929809,54.7358165 C214.63828,54.4588369 214.411415,54.1231203 214.248676,53.7292056 C214.085937,53.3352909 214.004568,52.8961111 214.004568,52.4105884 C214.004568,51.9256045 214.085937,51.4858858 214.248676,51.0919712 C214.411415,50.6980565 214.63828,50.3628788 214.929809,50.0858991 C215.220799,49.8089195 215.566216,49.5966043 215.965519,49.4478759 C216.365361,49.2996864 216.801308,49.2253222 217.275514,49.2253222 C217.446875,49.2253222 217.625242,49.2409495 217.811152,49.272204 C217.995985,49.3039974 218.179201,49.3535735 218.358645,49.4220101 C218.538628,49.4904467 218.711067,49.5820548 218.877039,49.6962954 C219.042472,49.8105361 219.190662,49.9506425 219.322146,50.115537 L218.294519,50.955098 Z" id="Fill-28" fill="#001A71" mask="url(#mask-2)"/>
                            <polygon id="Fill-29" fill="#001A71" mask="url(#mask-2)" points="221.368832 50.5609677 219.639056 50.5609677 219.639056 49.3797626 224.43393 49.3797626 224.43393 50.5609677 222.704693 50.5609677 222.704693 55.4420608 221.368832 55.4420608"/>
                            <path d="M230.222859,53.104277 C230.222859,53.4637039 230.167894,53.7951095 230.059581,54.0974161 C229.951268,54.3997227 229.790146,54.6626917 229.576214,54.8852454 C229.361743,55.1077991 229.095002,55.2818545 228.775452,55.4074114 C228.455901,55.5329683 228.087313,55.5960162 227.671305,55.5960162 C227.248291,55.5960162 226.877548,55.5329683 226.557459,55.4074114 C226.237908,55.2818545 225.971167,55.1077991 225.757235,54.8852454 C225.542765,54.6626917 225.382181,54.3997227 225.273329,54.0974161 C225.165016,53.7951095 225.111129,53.4637039 225.111129,53.104277 L225.111129,49.379601 L226.446451,49.379601 L226.446451,53.0525453 C226.446451,53.2411502 226.476628,53.4152055 226.536443,53.5752502 C226.596796,53.7352948 226.68086,53.8737847 226.789173,53.9907197 C226.897486,54.1071158 227.027354,54.1987239 227.178777,54.2644661 C227.329661,54.3302084 227.494016,54.3630795 227.671305,54.3630795 C227.848055,54.3630795 228.010794,54.3302084 228.158983,54.2644661 C228.307173,54.1987239 228.435963,54.1071158 228.544276,53.9907197 C228.652589,53.8737847 228.736653,53.7352948 228.797006,53.5752502 C228.856821,53.4152055 228.886998,53.2411502 228.886998,53.0525453 L228.886998,49.379601 L230.222859,49.379601 L230.222859,53.104277 Z" id="Fill-30" fill="#001A71" mask="url(#mask-2)"/>
                            <path d="M232.791441,51.888153 L233.57927,51.888153 C233.699439,51.888153 233.826073,51.883842 233.960252,51.875759 C234.094431,51.867137 234.215677,51.8412712 234.32399,51.7987004 C234.432303,51.7555908 234.522295,51.6887708 234.593964,51.5971627 C234.665634,51.5060935 234.700661,51.3778422 234.700661,51.21187 C234.700661,51.0577529 234.669406,50.9348903 234.606359,50.8438211 C234.543849,50.7527519 234.464097,50.6826987 234.3671,50.6342003 C234.269564,50.5857019 234.158557,50.5522919 234.033,50.5355869 C233.906904,50.5183431 233.78458,50.5097211 233.664951,50.5097211 L232.791441,50.5097211 L232.791441,51.888153 Z M231.45558,49.3797087 L233.801824,49.3797087 C234.110058,49.3797087 234.402126,49.4093466 234.679645,49.4697002 C234.956625,49.5295149 235.199117,49.6297449 235.407121,49.7687736 C235.615664,49.90888 235.781097,50.0974848 235.90396,50.3340492 C236.026822,50.5711524 236.087715,50.8664537 236.087715,51.2204919 C236.087715,51.6488943 235.976707,52.0120933 235.754154,52.3122444 C235.5316,52.6118567 235.205583,52.8015393 234.778258,52.881831 L236.319429,55.4420069 L234.717905,55.4420069 L233.451019,53.0187043 L232.791441,53.0187043 L232.791441,55.4420069 L231.45558,55.4420069 L231.45558,49.3797087 Z" id="Fill-31" fill="#001A71" mask="url(#mask-2)"/>
                            <polygon id="Fill-32" fill="#001A71" mask="url(#mask-2)" points="237.055581 49.3795471 241.17471 49.3795471 241.17471 50.6124838 238.391442 50.6124838 238.391442 51.7430351 241.020054 51.7430351 241.020054 52.9759718 238.391442 52.9759718 238.391442 54.2089085 241.328827 54.2089085 241.328827 55.4418452 237.055581 55.4418452"/>
                            <path d="M243.734078,51.888153 L244.521907,51.888153 C244.642075,51.888153 244.76871,51.883842 244.902889,51.875759 C245.037068,51.867137 245.158314,51.8412712 245.266627,51.7987004 C245.37494,51.7555908 245.464931,51.6887708 245.536601,51.5971627 C245.608271,51.5060935 245.643298,51.3778422 245.643298,51.21187 C245.643298,51.0577529 245.612043,50.9348903 245.548995,50.8438211 C245.486486,50.7527519 245.406733,50.6826987 245.309737,50.6342003 C245.212201,50.5857019 245.101194,50.5522919 244.975637,50.5355869 C244.849541,50.5183431 244.727217,50.5097211 244.607588,50.5097211 L243.734078,50.5097211 L243.734078,51.888153 Z M242.398217,49.3797087 L244.744461,49.3797087 C245.052695,49.3797087 245.344763,49.4093466 245.622282,49.4697002 C245.899261,49.5295149 246.141753,49.6297449 246.349758,49.7687736 C246.558301,49.90888 246.723734,50.0974848 246.846597,50.3340492 C246.969459,50.5711524 247.030352,50.8664537 247.030352,51.2204919 C247.030352,51.6488943 246.919344,52.0120933 246.69679,52.3122444 C246.474237,52.6118567 246.14822,52.8015393 245.720895,52.881831 L247.262066,55.4420069 L245.660542,55.4420069 L244.393656,53.0187043 L243.734078,53.0187043 L243.734078,55.4420069 L242.398217,55.4420069 L242.398217,49.3797087 Z" id="Fill-33" fill="#001A71" mask="url(#mask-2)"/>
                            <path d="M248.015569,54.3899153 C248.015569,54.2352593 248.044129,54.0881475 248.100711,53.9496577 C248.15837,53.8111679 248.237584,53.6904608 248.33997,53.5886142 C248.441277,53.4867676 248.561984,53.4075535 248.700474,53.3498943 C248.838964,53.2933129 248.986076,53.2642139 249.140732,53.2642139 C249.295388,53.2642139 249.441961,53.2933129 249.580989,53.3498943 C249.719479,53.4075535 249.840186,53.4867676 249.942033,53.5886142 C250.04388,53.6904608 250.123094,53.8111679 250.180753,53.9496577 C250.237334,54.0881475 250.266433,54.2352593 250.266433,54.3899153 C250.266433,54.5451101 250.237334,54.691683 250.180753,54.8301728 C250.123094,54.9686627 250.04388,55.0893698 249.942033,55.1906775 C249.840186,55.293063 249.719479,55.3728159 249.580989,55.4299362 C249.441961,55.4865176 249.295388,55.5150778 249.140732,55.5150778 C248.986076,55.5150778 248.838964,55.4865176 248.700474,55.4299362 C248.561984,55.3728159 248.441277,55.293063 248.33997,55.1906775 C248.237584,55.0893698 248.15837,54.9686627 248.100711,54.8301728 C248.044129,54.691683 248.015569,54.5451101 248.015569,54.3899153" id="Fill-34" fill="#001A71" mask="url(#mask-2)"/>
                            <path d="M24.7998649,49.1553768 L1.12187543,49.1553768 L-5.38870948e-05,55.6622435 L28.3580297,55.6622435 L26.2251785,50.1328887 C25.997775,49.5439027 25.4314216,49.1553768 24.7998649,49.1553768" id="Fill-35" fill="#001A71" mask="url(#mask-2)"/>
                            <path d="M43.2311912,49.1553768 L66.9318133,49.1553768 L68.0537426,55.6622435 L39.6730264,55.6622435 L41.8058776,50.1328887 C42.0332811,49.5439027 42.5996345,49.1553768 43.2311912,49.1553768" id="Fill-36" fill="#001A71" mask="url(#mask-2)"/>
                            <path d="M131.820497,0.00916080611 L118.168741,0.00916080611 L102.69075,0.00916080611 L102.690212,0.00916080611 L106.176707,8.68929403 C106.641213,9.8473277 107.763682,10.606058 109.011168,10.606058 L109.011707,10.606058 L118.168741,10.606058 L118.168741,44.55385 L131.819958,44.55385 L131.820497,10.606058 L140.42465,10.606058 C141.689919,10.606058 142.715929,9.58004771 142.715929,8.31477873 L142.715929,0.00916080611 L131.820497,0.00916080611 Z" id="Fill-37" fill="#FFD100" mask="url(#mask-2)"/>
                            <path d="M145.747455,0.00916080611 L145.747455,0.0986133835 L145.747455,17.8684218 L145.747455,26.9370809 L145.747455,41.4984517 C145.747455,43.1856566 147.11511,44.55385 148.802854,44.55385 L159.399212,44.55385 L170.286561,44.55385 C171.534586,44.55385 172.657054,43.7951197 173.121561,42.637086 L176.608056,33.9569528 L159.399212,33.9569528 L159.399212,26.9370809 L170.497798,26.9370809 C171.341131,26.9370809 172.025497,26.2532537 172.025497,25.4099207 L172.025497,17.8684218 L159.399212,17.8684218 L159.399212,10.606058 L174.869119,10.606058 C176.116605,10.606058 177.239073,9.8473277 177.704119,8.68929403 L181.190075,0.00916080611 L145.747455,0.00916080611 Z" id="Fill-38" fill="#FFD100" mask="url(#mask-2)"/>
                            <path d="M234.94062,0.00916080611 L234.94062,0.00916080611 L221.288864,0.00916080611 L216.633019,0.00916080611 L213.147062,8.68929403 C212.692255,9.8214619 211.607508,10.5672593 210.393432,10.5995915 L210.393432,10.606058 L221.288864,10.606058 L221.288864,44.5630108 L234.94062,44.5630108 L234.94062,10.606058 L244.097654,10.606058 C245.345679,10.606058 246.468147,9.8473277 246.932654,8.68929403 L250.419149,0.00916080611 L234.94062,0.00916080611 Z" id="Fill-39" fill="#FFD100" mask="url(#mask-2)"/>
                            <path d="M203.510325,19.6400678 L192.439222,15.1006189 C190.896973,14.4679844 190.899129,13.196249 191.03708,12.494639 C191.175031,11.7924902 191.656242,10.6150571 193.32297,10.6150571 L203.042586,10.6150571 L203.042586,10.6058963 L207.256556,10.6058963 C208.504581,10.6058963 209.62705,9.84716604 210.092095,8.68967124 L213.578051,0.00899914483 L203.042586,0.00899914483 L203.042586,-0.000161661284 L193.32297,-0.000161661284 C187.05644,-0.000161661284 181.833164,4.29356205 180.621243,10.4426184 C179.409861,16.5905971 182.613449,22.5456599 188.4117,24.9226197 L199.482804,29.4620685 C201.025592,30.0941642 201.023436,31.3664385 200.885485,32.0675096 C200.746995,32.7696584 200.265784,33.9476303 198.599595,33.9476303 L179.662592,33.9567911 L176.176636,42.6374632 C175.71159,43.794958 174.589122,44.5536883 173.341635,44.5536883 L198.599595,44.5628491 C204.866125,44.5628491 210.088862,40.2685865 211.300783,34.120069 C212.512165,27.9720904 209.309116,22.0170275 203.510325,19.6400678" id="Fill-40" fill="#FFD100" mask="url(#mask-2)"/>
                            <path d="M98.2496995,6.82506999 C94.6155538,-2.25706097 81.6675626,-2.26460516 78.0215618,6.81267596 L68.400021,30.8463202 L70.7715921,44.5541194 L74.1767176,44.5541194 C75.423665,44.5541194 76.5450554,43.795928 77.0106399,42.6389721 L79.5611161,36.300772 L93.8201803,36.300772 L90.3256022,27.6184833 C89.8605565,26.4615273 88.7386272,25.7038748 87.4916798,25.7038748 L83.8025693,25.7038748 L88.1491024,14.8467029 L99.2757097,42.6341222 C99.7396776,43.7937725 100.863224,44.5541194 102.111788,44.5541194 L113.344014,44.5541194 L98.2496995,6.82506999 Z" id="Fill-41" fill="#FFD100" mask="url(#mask-2)"/>
                            <path d="M42.7117735,5.71418753 L34.032718,28.2028888 L25.3542014,5.71418753 C22.1172036,-2.67226103 9.89129957,-1.46411237 8.35875059,7.3933094 L1.92948132,44.55385 L12.8324572,44.55385 C14.3186633,44.55385 15.589321,43.4841911 15.8425903,42.0195399 L19.2191557,22.5010953 L34.032718,60.9274437 L48.8462804,22.5010953 L52.2228457,42.0195399 C52.476654,43.4841911 53.7473117,44.55385 55.2335177,44.55385 L66.1359548,44.55385 L59.7072243,7.3933094 C58.1746754,-1.46411237 45.9482324,-2.67226103 42.7117735,5.71418753" id="Fill-42" fill="#FFD100" mask="url(#mask-2)"/>
                        </g>
                    </g>
                </g>
            </g>
        </g>
    </g>
</svg>