<?xml version="1.0" encoding="UTF-8"?>
<svg width="188px" height="45px" viewBox="0 0 188 45" version="1.1" xmlns="http://www.w3.org/2000/svg" xmlns:xlink="http://www.w3.org/1999/xlink">
    <!-- Generator: Sketch 47 (45396) - http://www.bohemiancoding.com/sketch -->
    <title>logo-footer</title>
    <desc>Created with Sketch.</desc>
    <defs>
        <polygon id="path-1" points="0 44.3729941 187.337903 44.3729941 187.337903 0 0 0"/>
    </defs>
    <g id="Symbols" stroke="none" stroke-width="1" fill="none" fill-rule="evenodd">
        <g id="footer" transform="translate(-240.000000, -376.000000)">
            <g id="logo-footer">
                <g transform="translate(240.000000, 376.000000)">
                    <g>
                        <path d="M185.070962,1.78041414 L185.366481,1.78041414 C185.428489,1.78041414 185.491282,1.77766695 185.55329,1.77295749 C185.61569,1.76746311 185.671811,1.75490453 185.721653,1.73371193 C185.77228,1.71291178 185.812703,1.68190778 185.843707,1.64069994 C185.875103,1.59870719 185.890409,1.54219359 185.890409,1.46919684 C185.890409,1.39659255 185.875103,1.33929403 185.843707,1.29808619 C185.812703,1.25609344 185.77228,1.22508945 185.721653,1.20468176 C185.671811,1.18388161 185.61569,1.17171548 185.55329,1.16818338 C185.491282,1.16504374 185.428489,1.16308146 185.366481,1.16308146 L185.070962,1.16308146 L185.070962,1.78041414 Z M184.666732,0.820860165 L185.517184,0.820860165 C185.783269,0.820860165 185.979496,0.877766229 186.105867,0.991970813 C186.232238,1.1061754 186.295423,1.27022184 186.295423,1.48450261 C186.295423,1.67837568 186.245189,1.82358426 186.145898,1.92012834 C186.046606,2.01745733 185.921805,2.0743634 185.771102,2.09163145 L186.341733,3.02528335 L185.916311,3.02528335 L185.366481,2.12263544 L185.070962,2.12263544 L185.070962,3.02528335 L184.666732,3.02528335 L184.666732,0.820860165 Z M183.820598,1.93621902 C183.820598,2.15403189 183.862591,2.36007109 183.945006,2.55315925 C184.028207,2.74703232 184.141627,2.91578824 184.285265,3.05903454 C184.428119,3.20267329 184.597268,3.31570051 184.790748,3.3989011 C184.984621,3.48170923 185.190268,3.52370199 185.408081,3.52370199 C185.625894,3.52370199 185.831541,3.48170923 186.025806,3.3989011 C186.218894,3.31570051 186.387258,3.20267329 186.531289,3.05903454 C186.674535,2.91578824 186.787955,2.74703232 186.871155,2.55315925 C186.953964,2.36007109 186.995171,2.15403189 186.995171,1.93621902 C186.995171,1.71840616 186.953964,1.5119745 186.871155,1.31888634 C186.787955,1.12501327 186.674535,0.956257352 186.531289,0.813011052 C186.387258,0.669372297 186.218894,0.556737536 186.025806,0.473536945 C185.831541,0.390336355 185.625894,0.34873606 185.408081,0.34873606 C185.190268,0.34873606 184.984621,0.390336355 184.790748,0.473536945 C184.597268,0.556737536 184.428119,0.669372297 184.285265,0.813011052 C184.141627,0.956257352 184.028207,1.12501327 183.945006,1.31888634 C183.862591,1.5119745 183.820598,1.71840616 183.820598,1.93621902 Z M183.478377,1.93621902 C183.478377,1.66974166 183.529396,1.41974743 183.631434,1.1866288 C183.733473,0.953117707 183.871617,0.749040787 184.046652,0.574790494 C184.220903,0.39975529 184.42498,0.261218457 184.658491,0.159179997 C184.892002,0.0571415376 185.141604,0.00651476321 185.408081,0.00651476321 C185.674166,0.00651476321 185.92416,0.0571415376 186.158064,0.159179997 C186.391182,0.261218457 186.595259,0.39975529 186.769902,0.574790494 C186.944152,0.749040787 187.082689,0.953117707 187.18512,1.1866288 C187.286766,1.41974743 187.337785,1.66974166 187.337785,1.93621902 C187.337785,2.20230393 187.286766,2.45269061 187.18512,2.68580925 C187.082689,2.91892788 186.944152,3.12339726 186.769902,3.29804001 C186.595259,3.47268276 186.391182,3.61082713 186.158064,3.71286559 C185.92416,3.81490405 185.674166,3.86513837 185.408081,3.86513837 C185.141604,3.86513837 184.892002,3.81490405 184.658491,3.71286559 C184.42498,3.61082713 184.220903,3.47268276 184.046652,3.29804001 C183.871617,3.12339726 183.733473,2.91892788 183.631434,2.68580925 C183.529396,2.45269061 183.478377,2.20230393 183.478377,1.93621902 Z" id="Fill-1" fill="#FFFFFF"/>
                        <mask id="mask-2" fill="white">
                            <use xlink:href="#path-1"/>
                        </mask>
                        <g id="Clip-4"/>
                        <polygon id="Fill-3" fill="#FFFFFF" mask="url(#mask-2)" points="52.9112585 40.377796 53.884156 40.377796 53.884156 35.9626703 52.9112585 35.9626703"/>
                        <polygon id="Fill-5" fill="#FFFFFF" mask="url(#mask-2)" points="54.7695751 35.9627488 56.0913656 35.9627488 57.9684808 39.0305743 57.9810394 39.0305743 57.9810394 35.9627488 58.9539368 35.9627488 58.9539368 40.3778744 57.6815957 40.3778744 55.7546387 37.2346974 55.7424725 37.2346974 55.7424725 40.3778744 54.7695751 40.3778744"/>
                        <polygon id="Fill-6" fill="#FFFFFF" mask="url(#mask-2)" points="59.8519538 35.9627488 61.1737443 35.9627488 63.0508595 39.0305743 63.0634181 39.0305743 63.0634181 35.9627488 64.0363155 35.9627488 64.0363155 40.3778744 62.7639744 40.3778744 60.8370174 37.2346974 60.8248512 37.2346974 60.8248512 40.3778744 59.8519538 40.3778744"/>
                        <path d="M65.7073523,38.1703116 C65.7073523,38.3779206 65.7395337,38.5686541 65.8038964,38.7409421 C65.8682591,38.9136225 65.9608786,39.0631481 66.0813625,39.1899113 C66.2022388,39.3166745 66.3466625,39.4155733 66.515026,39.4862153 C66.6833894,39.5568573 66.8713757,39.5921783 67.0793771,39.5921783 C67.2869862,39.5921783 67.4753648,39.5568573 67.6437283,39.4862153 C67.8120918,39.4155733 67.9565154,39.3166745 68.0769993,39.1899113 C68.1978756,39.0631481 68.2901027,38.9136225 68.3544654,38.7409421 C68.4188281,38.5686541 68.451402,38.3779206 68.451402,38.1703116 C68.451402,37.9666271 68.4188281,37.7774635 68.3544654,37.6028208 C68.2901027,37.428178 68.1978756,37.2778675 68.0769993,37.1507119 C67.9565154,37.0239488 67.8120918,36.9250499 67.6437283,36.8544079 C67.4753648,36.7837659 67.2869862,36.7484449 67.0793771,36.7484449 C66.8713757,36.7484449 66.6833894,36.7837659 66.515026,36.8544079 C66.3466625,36.9250499 66.2022388,37.0239488 66.0813625,37.1507119 C65.9608786,37.2778675 65.8682591,37.428178 65.8038964,37.6028208 C65.7395337,37.7774635 65.7073523,37.9666271 65.7073523,38.1703116 M64.6971715,38.1703116 C64.6971715,37.8171016 64.7564323,37.4968578 64.8749539,37.2099727 C64.9934755,36.9230877 65.1586994,36.6789803 65.3710178,36.4772581 C65.5829439,36.2755359 65.8341155,36.1205159 66.1249251,36.0125906 C66.4165196,35.9046653 66.7340162,35.8505065 67.0793771,35.8505065 C67.4243456,35.8505065 67.7426271,35.9046653 68.0334367,36.0125906 C68.3246388,36.1205159 68.5762028,36.2755359 68.7881289,36.4772581 C69.0000549,36.6789803 69.1656712,36.9230877 69.2838003,37.2099727 C69.4023219,37.4968578 69.4615827,37.8171016 69.4615827,38.1703116 C69.4615827,38.5235217 69.4023219,38.8437654 69.2838003,39.1306505 C69.1656712,39.4175356 69.0000549,39.6620354 68.7881289,39.8633651 C68.5762028,40.0650873 68.3246388,40.2201073 68.0334367,40.3280326 C67.7426271,40.4359579 67.4243456,40.4901168 67.0793771,40.4901168 C66.7340162,40.4901168 66.4165196,40.4359579 66.1249251,40.3280326 C65.8341155,40.2201073 65.5829439,40.0650873 65.3710178,39.8633651 C65.1586994,39.6620354 64.9934755,39.4175356 64.8749539,39.1306505 C64.7564323,38.8437654 64.6971715,38.5235217 64.6971715,38.1703116" id="Fill-7" fill="#FFFFFF" mask="url(#mask-2)"/>
                        <polygon id="Fill-8" fill="#FFFFFF" mask="url(#mask-2)" points="69.686342 35.9627488 70.7962065 35.9627488 71.8872331 38.856324 71.9001842 38.856324 73.0100487 35.9627488 74.0512334 35.9627488 72.2302393 40.3778744 71.4508225 40.3778744"/>
                        <path d="M75.9970283,37.247413 L75.460934,38.6190454 L76.5397945,38.6190454 L75.9970283,37.247413 Z M75.6230181,35.9629058 L76.4275521,35.9629058 L78.3478375,40.3780314 L77.2505316,40.3780314 L76.8702421,39.4424172 L75.1548186,39.4424172 L74.7870877,40.3780314 L73.7148989,40.3780314 L75.6230181,35.9629058 Z" id="Fill-9" fill="#FFFFFF" mask="url(#mask-2)"/>
                        <polygon id="Fill-10" fill="#FFFFFF" mask="url(#mask-2)" points="79.0715256 36.8231685 77.8117431 36.8231685 77.8117431 35.9629058 81.3038132 35.9629058 81.3038132 36.8231685 80.0444231 36.8231685 80.0444231 40.3780314 79.0715256 40.3780314"/>
                        <polygon id="Fill-11" fill="#FFFFFF" mask="url(#mask-2)" points="81.7838256 40.377796 82.7567231 40.377796 82.7567231 35.9626703 81.7838256 35.9626703"/>
                        <polygon id="Fill-12" fill="#FFFFFF" mask="url(#mask-2)" points="83.206124 35.9627488 84.3159885 35.9627488 85.4070151 38.856324 85.4199661 38.856324 86.5298306 35.9627488 87.5710154 35.9627488 85.7500213 40.3778744 84.9706045 40.3778744"/>
                        <polygon id="Fill-13" fill="#FFFFFF" mask="url(#mask-2)" points="88.0700227 35.9627488 91.0699534 35.9627488 91.0699534 36.8606872 89.0429202 36.8606872 89.0429202 37.6840591 90.9573186 37.6840591 90.9573186 38.5819976 89.0429202 38.5819976 89.0429202 39.479936 91.1821957 39.479936 91.1821957 40.3778744 88.0700227 40.3778744"/>
                        <path d="M92.011062,39.6117618 C92.011062,39.4991271 92.0318621,39.3919867 92.07307,39.2911256 C92.1150627,39.1902645 92.1727537,39.1023545 92.2473203,39.0281803 C92.3211019,38.9540062 92.409012,38.8963153 92.5098731,38.8543225 C92.6107342,38.8131147 92.7178745,38.7919221 92.8305093,38.7919221 C92.9431441,38.7919221 93.049892,38.8131147 93.1511455,38.8543225 C93.2520066,38.8963153 93.3399167,38.9540062 93.4140908,39.0281803 C93.4882649,39.1023545 93.5459559,39.1902645 93.5879486,39.2911256 C93.6291565,39.3919867 93.6503491,39.4991271 93.6503491,39.6117618 C93.6503491,39.7247891 93.6291565,39.831537 93.5879486,39.9323981 C93.5459559,40.0332592 93.4882649,40.1211692 93.4140908,40.1949509 C93.3399167,40.2695175 93.2520066,40.3276009 93.1511455,40.3692012 C93.049892,40.410409 92.9431441,40.4312092 92.8305093,40.4312092 C92.7178745,40.4312092 92.6107342,40.410409 92.5098731,40.3692012 C92.409012,40.3276009 92.3211019,40.2695175 92.2473203,40.1949509 C92.1727537,40.1211692 92.1150627,40.0332592 92.07307,39.9323981 C92.0318621,39.831537 92.011062,39.7247891 92.011062,39.6117618" id="Fill-14" fill="#FFFFFF" mask="url(#mask-2)"/>
                        <path d="M101.232238,40.0659115 C100.945746,40.2158295 100.646302,40.3237548 100.3343,40.3904723 C100.02269,40.4567973 99.7044086,40.490156 99.3802403,40.490156 C99.0348794,40.490156 98.7173828,40.4359971 98.4261807,40.3280718 C98.1349786,40.2201465 97.883807,40.0651266 97.671881,39.8634044 C97.4595625,39.6620747 97.2943387,39.4175748 97.1758171,39.1306897 C97.0572955,38.8438047 96.9980347,38.5235609 96.9980347,38.1703509 C96.9980347,37.8171408 97.0572955,37.496897 97.1758171,37.210012 C97.2943387,36.9231269 97.4595625,36.6790195 97.671881,36.4769049 C97.883807,36.2755751 98.1349786,36.1205552 98.4261807,36.0126299 C98.7173828,35.9043121 99.0348794,35.8505457 99.3802403,35.8505457 C99.7338428,35.8505457 100.059189,35.8929309 100.356277,35.9784862 C100.653366,36.0636491 100.914349,36.2100351 101.138834,36.4180365 L100.453214,37.1660569 C100.319779,37.0290899 100.170253,36.9250892 100.003852,36.8544472 C99.8374511,36.7838052 99.6298421,36.7484842 99.3802403,36.7484842 C99.1722388,36.7484842 98.9842526,36.7838052 98.8158891,36.8544472 C98.6475257,36.9250892 98.503102,37.023988 98.3822257,37.1507512 C98.2621343,37.2779068 98.1691223,37.4282173 98.1047596,37.60286 C98.0403968,37.7775028 98.0082155,37.9666664 98.0082155,38.1703509 C98.0082155,38.3779599 98.0403968,38.5686933 98.1047596,38.7409813 C98.1691223,38.9132693 98.2621343,39.0631874 98.3822257,39.1899505 C98.503102,39.3167137 98.6475257,39.4156125 98.8158891,39.4858621 C98.9842526,39.5568965 99.1722388,39.5922176 99.3802403,39.5922176 C99.5921663,39.5922176 99.7750507,39.5682778 99.9292857,39.5203982 C100.082736,39.4725186 100.205574,39.4234616 100.297017,39.3736198 L100.297017,38.6566034 L99.5050412,38.6566034 L99.5050412,37.7586649 L101.232238,37.7586649 L101.232238,40.0659115 Z" id="Fill-15" fill="#FFFFFF" mask="url(#mask-2)"/>
                        <polygon id="Fill-16" fill="#FFFFFF" mask="url(#mask-2)" points="102.124094 35.9627488 103.096991 35.9627488 103.096991 39.479936 104.899147 39.479936 104.899147 40.3778744 102.124094 40.3778744"/>
                        <path d="M106.208458,38.1703116 C106.208458,38.3779206 106.240639,38.5686541 106.305002,38.7409421 C106.369365,38.9136225 106.461984,39.0631481 106.582468,39.1899113 C106.703344,39.3166745 106.847768,39.4155733 107.016131,39.4862153 C107.184495,39.5568573 107.372481,39.5921783 107.580483,39.5921783 C107.788092,39.5921783 107.97647,39.5568573 108.144834,39.4862153 C108.313197,39.4155733 108.457621,39.3166745 108.578105,39.1899113 C108.698981,39.0631481 108.791208,38.9136225 108.855571,38.7409421 C108.919934,38.5686541 108.952507,38.3779206 108.952507,38.1703116 C108.952507,37.9666271 108.919934,37.7774635 108.855571,37.6028208 C108.791208,37.428178 108.698981,37.2778675 108.578105,37.1507119 C108.457621,37.0239488 108.313197,36.9250499 108.144834,36.8544079 C107.97647,36.7837659 107.788092,36.7484449 107.580483,36.7484449 C107.372481,36.7484449 107.184495,36.7837659 107.016131,36.8544079 C106.847768,36.9250499 106.703344,37.0239488 106.582468,37.1507119 C106.461984,37.2778675 106.369365,37.428178 106.305002,37.6028208 C106.240639,37.7774635 106.208458,37.9666271 106.208458,38.1703116 M105.198277,38.1703116 C105.198277,37.8171016 105.257538,37.4968578 105.376059,37.2099727 C105.494581,36.9230877 105.659805,36.6789803 105.872123,36.4772581 C106.084049,36.2755359 106.335221,36.1205159 106.626031,36.0125906 C106.917625,35.9046653 107.235122,35.8505065 107.580483,35.8505065 C107.925451,35.8505065 108.243733,35.9046653 108.534542,36.0125906 C108.825744,36.1205159 109.077308,36.2755359 109.289234,36.4772581 C109.50116,36.6789803 109.666777,36.9230877 109.784906,37.2099727 C109.903427,37.4968578 109.962688,37.8171016 109.962688,38.1703116 C109.962688,38.5235217 109.903427,38.8437654 109.784906,39.1306505 C109.666777,39.4175356 109.50116,39.6620354 109.289234,39.8633651 C109.077308,40.0650873 108.825744,40.2201073 108.534542,40.3280326 C108.243733,40.4359579 107.925451,40.4901168 107.580483,40.4901168 C107.235122,40.4901168 106.917625,40.4359579 106.626031,40.3280326 C106.335221,40.2201073 106.084049,40.0650873 105.872123,39.8633651 C105.659805,39.6620354 105.494581,39.4175356 105.376059,39.1306505 C105.257538,38.8437654 105.198277,38.5235217 105.198277,38.1703116" id="Fill-17" fill="#FFFFFF" mask="url(#mask-2)"/>
                        <path d="M111.596677,39.5546203 L112.469891,39.5546203 C112.544457,39.5546203 112.620201,39.5463787 112.697515,39.5298956 C112.774044,39.5134125 112.843901,39.4839783 112.906302,39.442378 C112.968702,39.4007777 113.019329,39.3470113 113.059359,39.2802938 C113.098212,39.2139688 113.118228,39.1327305 113.118228,39.0373638 C113.118228,38.9333631 113.092326,38.8489851 113.040521,38.7846224 C112.988325,38.7202597 112.922785,38.6712027 112.843901,38.637844 C112.765018,38.6048777 112.679462,38.5817228 112.58802,38.5691643 C112.496578,38.5569981 112.411415,38.5503264 112.332531,38.5503264 L111.596677,38.5503264 L111.596677,39.5546203 Z M111.596677,37.7277394 L112.301527,37.7277394 C112.376094,37.7277394 112.449876,37.7191054 112.52248,37.7026223 C112.595477,37.6857467 112.661017,37.6590597 112.7191,37.6213839 C112.777184,37.5841007 112.824278,37.5342588 112.859599,37.4718584 C112.89492,37.4094579 112.912581,37.3348913 112.912581,37.2473737 C112.912581,37.1559316 112.892958,37.0797952 112.85332,37.0197495 C112.813682,36.9597038 112.763055,36.9130016 112.700655,36.8796428 C112.637862,36.8462841 112.567612,36.8223443 112.488336,36.8078235 C112.40906,36.7933026 112.332531,36.7858459 112.257965,36.7858459 L111.596677,36.7858459 L111.596677,37.7277394 Z M110.62378,35.9628665 L112.270131,35.9628665 C112.461257,35.9628665 112.65356,35.97621 112.847041,36.0032894 C113.040521,36.0303689 113.213594,36.0841353 113.367829,36.1653736 C113.52128,36.2462195 113.646473,36.3596391 113.74184,36.5048477 C113.837599,36.6508412 113.885086,36.8443218 113.885086,37.0852896 C113.885086,37.3348913 113.815621,37.541323 113.676299,37.7057619 C113.536978,37.8698083 113.353309,37.987545 113.124507,38.058187 L113.124507,38.0707456 C113.270108,38.0911533 113.401973,38.1319687 113.520495,38.1920144 C113.639016,38.2524526 113.740662,38.3293739 113.826218,38.4227783 C113.910988,38.5161827 113.976528,38.6256779 114.022445,38.7500863 C114.068363,38.8752796 114.090733,39.0079296 114.090733,39.1496061 C114.090733,39.3823323 114.041283,39.5765978 113.941599,39.7324027 C113.841916,39.8886 113.712798,40.0141858 113.554638,40.1095525 C113.396871,40.2053117 113.219089,40.2739914 113.021684,40.3151993 C112.824278,40.357192 112.627658,40.3779922 112.432215,40.3779922 L110.62378,40.3779922 L110.62378,35.9628665 Z" id="Fill-18" fill="#FFFFFF" mask="url(#mask-2)"/>
                        <path d="M116.492051,37.247413 L115.955956,38.6190454 L117.034817,38.6190454 L116.492051,37.247413 Z M116.118041,35.9629058 L116.922575,35.9629058 L118.84286,40.3780314 L117.745554,40.3780314 L117.365265,39.4424172 L115.649841,39.4424172 L115.28211,40.3780314 L114.209921,40.3780314 L116.118041,35.9629058 Z" id="Fill-19" fill="#FFFFFF" mask="url(#mask-2)"/>
                        <polygon id="Fill-20" fill="#FFFFFF" mask="url(#mask-2)" points="119.323147 35.9627488 120.296045 35.9627488 120.296045 39.479936 122.098201 39.479936 122.098201 40.3778744 119.323147 40.3778744"/>
                        <path d="M122.684333,39.6117618 C122.684333,39.4991271 122.705133,39.3919867 122.746341,39.2911256 C122.788334,39.1902645 122.846025,39.1023545 122.920591,39.0281803 C122.994373,38.9540062 123.082283,38.8963153 123.183144,38.8543225 C123.284005,38.8131147 123.391146,38.7919221 123.503781,38.7919221 C123.616415,38.7919221 123.723163,38.8131147 123.824417,38.8543225 C123.925278,38.8963153 124.013188,38.9540062 124.087362,39.0281803 C124.161536,39.1023545 124.219227,39.1902645 124.26122,39.2911256 C124.302428,39.3919867 124.32362,39.4991271 124.32362,39.6117618 C124.32362,39.7247891 124.302428,39.831537 124.26122,39.9323981 C124.219227,40.0332592 124.161536,40.1211692 124.087362,40.1949509 C124.013188,40.2695175 123.925278,40.3276009 123.824417,40.3692012 C123.723163,40.410409 123.616415,40.4312092 123.503781,40.4312092 C123.391146,40.4312092 123.284005,40.410409 123.183144,40.3692012 C123.082283,40.3276009 122.994373,40.2695175 122.920591,40.1949509 C122.846025,40.1211692 122.788334,40.0332592 122.746341,39.9323981 C122.705133,39.831537 122.684333,39.7247891 122.684333,39.6117618" id="Fill-21" fill="#FFFFFF" mask="url(#mask-2)"/>
                        <polygon id="Fill-22" fill="#FFFFFF" mask="url(#mask-2)" points="127.908506 35.9627488 129.380215 35.9627488 130.396675 38.8437654 130.408841 38.8437654 131.431973 35.9627488 132.897402 35.9627488 132.897402 40.3778744 131.924112 40.3778744 131.924112 36.9917674 131.911946 36.9917674 130.751847 40.3778744 130.009714 40.3778744 128.89357 36.9917674 128.881404 36.9917674 128.881404 40.3778744 127.908506 40.3778744"/>
                        <path d="M135.622339,37.247413 L135.086245,38.6190454 L136.165105,38.6190454 L135.622339,37.247413 Z M135.248329,35.9629058 L136.052863,35.9629058 L137.973148,40.3780314 L136.875842,40.3780314 L136.495553,39.4424172 L134.780129,39.4424172 L134.412398,40.3780314 L133.34021,40.3780314 L135.248329,35.9629058 Z" id="Fill-23" fill="#FFFFFF" mask="url(#mask-2)"/>
                        <polygon id="Fill-24" fill="#FFFFFF" mask="url(#mask-2)" points="138.41627 35.9627488 139.73806 35.9627488 141.615175 39.0305743 141.627734 39.0305743 141.627734 35.9627488 142.600632 35.9627488 142.600632 40.3778744 141.32829 40.3778744 139.401333 37.2346974 139.389167 37.2346974 139.389167 40.3778744 138.41627 40.3778744"/>
                        <path d="M147.221247,38.6754412 C147.221247,38.9372091 147.181216,39.1785693 147.102333,39.3987369 C147.023449,39.6189045 146.906105,39.8104229 146.7503,39.972507 C146.594103,40.1345912 146.399837,40.2613544 146.167111,40.3527965 C145.934385,40.4442387 145.665945,40.490156 145.36297,40.490156 C145.054892,40.490156 144.784882,40.4442387 144.551764,40.3527965 C144.319038,40.2613544 144.124772,40.1345912 143.968967,39.972507 C143.81277,39.8104229 143.695818,39.6189045 143.616542,39.3987369 C143.537659,39.1785693 143.498413,38.9372091 143.498413,38.6754412 L143.498413,35.962788 L144.470918,35.962788 L144.470918,38.6377655 C144.470918,38.775125 144.492896,38.9018881 144.536458,39.0184474 C144.580413,39.1350068 144.641636,39.2358679 144.72052,39.3210307 C144.799403,39.4058011 144.893985,39.4725186 145.004265,39.5203982 C145.114153,39.5682778 145.233852,39.5922176 145.36297,39.5922176 C145.491695,39.5922176 145.610217,39.5682778 145.718142,39.5203982 C145.826067,39.4725186 145.919864,39.4058011 145.998748,39.3210307 C146.077631,39.2358679 146.138854,39.1350068 146.182809,39.0184474 C146.226372,38.9018881 146.248349,38.775125 146.248349,38.6377655 L146.248349,35.962788 L147.221247,35.962788 L147.221247,38.6754412 Z" id="Fill-25" fill="#FFFFFF" mask="url(#mask-2)"/>
                        <polygon id="Fill-26" fill="#FFFFFF" mask="url(#mask-2)" points="148.156743 35.9627488 151.118998 35.9627488 151.118998 36.8606872 149.129641 36.8606872 149.129641 37.7586257 150.969473 37.7586257 150.969473 38.6565641 149.129641 38.6565641 149.129641 40.3778744 148.156743 40.3778744"/>
                        <path d="M153.301209,37.247413 L152.765114,38.6190454 L153.843975,38.6190454 L153.301209,37.247413 Z M152.927198,35.9629058 L153.731732,35.9629058 L155.652018,40.3780314 L154.554712,40.3780314 L154.174422,39.4424172 L152.458999,39.4424172 L152.091268,40.3780314 L151.019079,40.3780314 L152.927198,35.9629058 Z" id="Fill-27" fill="#FFFFFF" mask="url(#mask-2)"/>
                        <path d="M158.982239,37.1102105 C158.886872,36.9936512 158.769136,36.9045638 158.630206,36.8417709 C158.490492,36.7793704 158.329585,36.7483664 158.146701,36.7483664 C157.963424,36.7483664 157.794276,36.7836874 157.638471,36.8547219 C157.482666,36.9249715 157.347269,37.0238703 157.233064,37.1510259 C157.11886,37.2777891 157.028987,37.428492 156.964625,37.6027423 C156.900262,37.7773851 156.868081,37.9669411 156.868081,38.1702331 C156.868081,38.3778421 156.900262,38.5685756 156.964625,38.7408636 C157.028987,38.9135441 157.117682,39.0634621 157.229925,39.1898328 C157.342167,39.316596 157.474032,39.4154948 157.625912,39.4861368 C157.777793,39.5567788 157.941054,39.5920998 158.115305,39.5920998 C158.315065,39.5920998 158.49167,39.550892 158.645905,39.4672989 C158.799355,39.3844908 158.926118,39.2679315 159.025802,39.1180134 L159.836615,39.72318 C159.649414,39.9849479 159.412763,40.178036 159.125485,40.3032294 C158.838993,40.4276378 158.543866,40.4900383 158.240106,40.4900383 C157.894745,40.4900383 157.577248,40.4362718 157.286046,40.3279541 C156.995236,40.2200288 156.743672,40.0650088 156.531746,39.8636791 C156.319428,39.6619569 156.154204,39.4174571 156.035682,39.130572 C155.917161,38.843687 155.8579,38.5238356 155.8579,38.1702331 C155.8579,37.8170231 155.917161,37.4967793 156.035682,37.2098942 C156.154204,36.9230092 156.319428,36.6789018 156.531746,36.4771796 C156.743672,36.2754574 156.995236,36.1208299 157.286046,36.0125122 C157.577248,35.9045869 157.894745,35.850428 158.240106,35.850428 C158.364906,35.850428 158.494809,35.8618092 158.630206,35.8845716 C158.764819,35.9077265 158.898254,35.9438324 159.028941,35.9936743 C159.160021,36.0435161 159.285607,36.1102336 159.406484,36.1934342 C159.526967,36.2766348 159.634893,36.3786732 159.730652,36.4987647 L158.982239,37.1102105 Z" id="Fill-28" fill="#FFFFFF" mask="url(#mask-2)"/>
                        <polygon id="Fill-29" fill="#FFFFFF" mask="url(#mask-2)" points="161.221238 36.8231685 159.961455 36.8231685 159.961455 35.9629058 163.453525 35.9629058 163.453525 36.8231685 162.194135 36.8231685 162.194135 40.3780314 161.221238 40.3780314"/>
                        <path d="M167.669558,38.6754412 C167.669558,38.9372091 167.629528,39.1785693 167.550644,39.3987369 C167.47176,39.6189045 167.354416,39.8104229 167.198611,39.972507 C167.042414,40.1345912 166.848148,40.2613544 166.615422,40.3527965 C166.382696,40.4442387 166.114256,40.490156 165.811281,40.490156 C165.503203,40.490156 165.233194,40.4442387 165.000075,40.3527965 C164.767349,40.2613544 164.573083,40.1345912 164.417278,39.972507 C164.261081,39.8104229 164.144129,39.6189045 164.064853,39.3987369 C163.98597,39.1785693 163.946724,38.9372091 163.946724,38.6754412 L163.946724,35.962788 L164.919229,35.962788 L164.919229,38.6377655 C164.919229,38.775125 164.941207,38.9018881 164.984769,39.0184474 C165.028724,39.1350068 165.089947,39.2358679 165.168831,39.3210307 C165.247714,39.4058011 165.342296,39.4725186 165.452576,39.5203982 C165.562464,39.5682778 165.682163,39.5922176 165.811281,39.5922176 C165.940006,39.5922176 166.058528,39.5682778 166.166453,39.5203982 C166.274378,39.4725186 166.368175,39.4058011 166.447059,39.3210307 C166.525942,39.2358679 166.587166,39.1350068 166.631121,39.0184474 C166.674683,38.9018881 166.696661,38.775125 166.696661,38.6377655 L166.696661,35.962788 L167.669558,35.962788 L167.669558,38.6754412 Z" id="Fill-30" fill="#FFFFFF" mask="url(#mask-2)"/>
                        <path d="M169.540237,37.7897474 L170.114007,37.7897474 C170.201525,37.7897474 170.293752,37.7866078 170.391473,37.7807209 C170.489195,37.7744416 170.577497,37.7556038 170.656381,37.7245998 C170.735264,37.6932033 170.800804,37.6445388 170.853001,37.5778214 C170.905198,37.5114964 170.930707,37.4180919 170.930707,37.2972156 C170.930707,37.1849733 170.907945,37.0954934 170.862028,37.0291684 C170.816503,36.9628434 170.758419,36.9118242 170.687777,36.8765032 C170.616743,36.8411822 170.535897,36.8168499 170.444455,36.8046838 C170.35262,36.7921252 170.263533,36.7858459 170.176408,36.7858459 L169.540237,36.7858459 L169.540237,37.7897474 Z M168.56734,35.9628665 L170.276091,35.9628665 C170.500576,35.9628665 170.713287,35.9844516 170.915402,36.0284066 C171.117124,36.0719692 171.293729,36.1449659 171.445217,36.2462195 C171.597097,36.3482579 171.717581,36.4856174 171.807061,36.6579054 C171.896541,36.8305859 171.940888,37.0456516 171.940888,37.3034949 C171.940888,37.6154971 171.860042,37.8800122 171.697958,38.09861 C171.535874,38.3168153 171.298438,38.4549597 170.987221,38.5134356 L172.109644,40.3779922 L170.943266,40.3779922 L170.020603,38.6131193 L169.540237,38.6131193 L169.540237,40.3779922 L168.56734,40.3779922 L168.56734,35.9628665 Z" id="Fill-31" fill="#FFFFFF" mask="url(#mask-2)"/>
                        <polygon id="Fill-32" fill="#FFFFFF" mask="url(#mask-2)" points="172.645778 35.9627488 175.645708 35.9627488 175.645708 36.8606872 173.618675 36.8606872 173.618675 37.6840591 175.533074 37.6840591 175.533074 38.5819976 173.618675 38.5819976 173.618675 39.479936 175.757951 39.479936 175.757951 40.3778744 172.645778 40.3778744"/>
                        <path d="M177.509676,37.7897474 L178.083446,37.7897474 C178.170964,37.7897474 178.263191,37.7866078 178.360912,37.7807209 C178.458634,37.7744416 178.546936,37.7556038 178.62582,37.7245998 C178.704704,37.6932033 178.770244,37.6445388 178.82244,37.5778214 C178.874637,37.5114964 178.900146,37.4180919 178.900146,37.2972156 C178.900146,37.1849733 178.877384,37.0954934 178.831467,37.0291684 C178.785942,36.9628434 178.727858,36.9118242 178.657216,36.8765032 C178.586182,36.8411822 178.505336,36.8168499 178.413894,36.8046838 C178.322059,36.7921252 178.232972,36.7858459 178.145847,36.7858459 L177.509676,36.7858459 L177.509676,37.7897474 Z M176.536779,35.9628665 L178.245531,35.9628665 C178.470015,35.9628665 178.682726,35.9844516 178.884841,36.0284066 C179.086563,36.0719692 179.263168,36.1449659 179.414656,36.2462195 C179.566536,36.3482579 179.68702,36.4856174 179.7765,36.6579054 C179.86598,36.8305859 179.910327,37.0456516 179.910327,37.3034949 C179.910327,37.6154971 179.829481,37.8800122 179.667397,38.09861 C179.505313,38.3168153 179.267877,38.4549597 178.95666,38.5134356 L180.079083,40.3779922 L178.912705,40.3779922 L177.990042,38.6131193 L177.509676,38.6131193 L177.509676,40.3779922 L176.536779,40.3779922 L176.536779,35.9628665 Z" id="Fill-33" fill="#FFFFFF" mask="url(#mask-2)"/>
                        <path d="M180.627854,39.6117618 C180.627854,39.4991271 180.648654,39.3919867 180.689862,39.2911256 C180.731855,39.1902645 180.789546,39.1023545 180.864112,39.0281803 C180.937894,38.9540062 181.025804,38.8963153 181.126665,38.8543225 C181.227526,38.8131147 181.334666,38.7919221 181.447301,38.7919221 C181.559936,38.7919221 181.666684,38.8131147 181.767937,38.8543225 C181.868798,38.8963153 181.956709,38.9540062 182.030883,39.0281803 C182.105057,39.1023545 182.162748,39.1902645 182.20474,39.2911256 C182.245948,39.3919867 182.267141,39.4991271 182.267141,39.6117618 C182.267141,39.7247891 182.245948,39.831537 182.20474,39.9323981 C182.162748,40.0332592 182.105057,40.1211692 182.030883,40.1949509 C181.956709,40.2695175 181.868798,40.3276009 181.767937,40.3692012 C181.666684,40.410409 181.559936,40.4312092 181.447301,40.4312092 C181.334666,40.4312092 181.227526,40.410409 181.126665,40.3692012 C181.025804,40.3276009 180.937894,40.2695175 180.864112,40.1949509 C180.789546,40.1211692 180.731855,40.0332592 180.689862,39.9323981 C180.648654,39.831537 180.627854,39.7247891 180.627854,39.6117618" id="Fill-34" fill="#FFFFFF" mask="url(#mask-2)"/>
                        <path d="M18.0615531,35.7994872 L0.817053345,35.7994872 L-3.92455615e-05,40.5383888 L20.6529375,40.5383888 L19.0995982,36.5114017 C18.9339819,36.0824477 18.5215111,35.7994872 18.0615531,35.7994872" id="Fill-35" fill="#FFFFFF" mask="url(#mask-2)"/>
                        <path d="M31.4849479,35.7994872 L48.7459308,35.7994872 L49.5630234,40.5383888 L28.8935635,40.5383888 L30.4469028,36.5114017 C30.6125191,36.0824477 31.02499,35.7994872 31.4849479,35.7994872" id="Fill-36" fill="#FFFFFF" mask="url(#mask-2)"/>
                        <path d="M96.0038662,0.00667174546 L86.0613956,0.00667174546 L74.788893,0.00667174546 L74.7885005,0.00667174546 L77.3276883,6.32834679 C77.6659851,7.17173391 78.4834701,7.72431142 79.3920049,7.72431142 L79.3923973,7.72431142 L86.0613956,7.72431142 L86.0613956,32.4482303 L96.0034737,32.4482303 L96.0038662,7.72431142 L102.270205,7.72431142 C103.191691,7.72431142 103.938926,6.97707592 103.938926,6.05559014 L103.938926,0.00667174546 L96.0038662,0.00667174546 Z" id="Fill-37" fill="#FFD100" mask="url(#mask-2)"/>
                        <path d="M106.146764,0.00667174546 L106.146764,0.0718193776 L106.146764,13.0134357 L106.146764,19.6180713 L106.146764,30.2230069 C106.146764,31.4517854 107.142816,32.4482303 108.371987,32.4482303 L116.089234,32.4482303 L124.018408,32.4482303 C124.927335,32.4482303 125.74482,31.8956527 126.083117,31.0522656 L128.622304,24.7305906 L116.089234,24.7305906 L116.089234,19.6180713 L124.17225,19.6180713 C124.786443,19.6180713 125.284862,19.1200451 125.284862,18.5058521 L125.284862,13.0134357 L116.089234,13.0134357 L116.089234,7.72431142 L127.35585,7.72431142 C128.264385,7.72431142 129.08187,7.17173391 129.420559,6.32834679 L131.959355,0.00667174546 L106.146764,0.00667174546 Z" id="Fill-38" fill="#FFD100" mask="url(#mask-2)"/>
                        <path d="M171.105468,0.00667174546 L171.105468,0.00667174546 L161.162997,0.00667174546 L157.772181,0.00667174546 L155.233385,6.32834679 C154.902153,7.15289604 154.11214,7.69605461 153.227937,7.71960195 L153.227937,7.72431142 L161.162997,7.72431142 L161.162997,32.454902 L171.105468,32.454902 L171.105468,7.72431142 L177.774466,7.72431142 C178.683393,7.72431142 179.500878,7.17173391 179.839175,6.32834679 L182.378363,0.00667174546 L171.105468,0.00667174546 Z" id="Fill-39" fill="#FFD100" mask="url(#mask-2)"/>
                        <path d="M148.215023,14.3037121 L140.152022,10.997666 C139.028814,10.5369231 139.030384,9.61072782 139.130853,9.09975061 C139.231322,8.58838094 139.581784,7.73086542 140.79565,7.73086542 L147.874372,7.73086542 L147.874372,7.72419368 L150.943375,7.72419368 C151.852302,7.72419368 152.669787,7.17161617 153.008476,6.32862151 L155.547271,0.00655400877 L147.874372,0.00655400877 L147.874372,-0.000117736685 L140.79565,-0.000117736685 C136.231783,-0.000117736685 132.427711,3.1269686 131.545078,7.60527963 C130.662838,12.0828057 132.995987,16.4198327 137.218809,18.1509545 L145.28181,21.4570006 C146.40541,21.917351 146.40384,22.8439387 146.303372,23.3545235 C146.202511,23.8658931 145.852048,24.7238011 144.638575,24.7238011 L130.8469,24.7304728 L128.308104,31.0525404 C127.969415,31.895535 127.15193,32.4481125 126.243395,32.4481125 L144.638575,32.4547843 C149.202441,32.4547843 153.006121,29.3273055 153.888754,24.8493869 C154.770994,20.3718608 152.438238,16.0348338 148.215023,14.3037121" id="Fill-40" fill="#FFD100" mask="url(#mask-2)"/>
                        <path d="M71.5545093,4.97064659 C68.9077886,-1.64380034 59.4778651,-1.64929472 56.8225104,4.96162011 L49.8152154,22.4651405 L51.5424125,32.4484265 L54.0223396,32.4484265 C54.9304819,32.4484265 55.747182,31.8962414 56.0862637,31.0536392 L57.9437561,26.4375763 L68.3285241,26.4375763 L65.7834494,20.1143314 C65.4447602,19.2717292 64.6276677,18.7199366 63.7195254,18.7199366 L61.0327742,18.7199366 L64.1983212,10.8127409 L72.3017448,31.0501071 C72.639649,31.8946716 73.457919,32.4484265 74.3672387,32.4484265 L82.5475835,32.4484265 L71.5545093,4.97064659 Z" id="Fill-41" fill="#FFD100" mask="url(#mask-2)"/>
                        <path d="M31.10666,4.16159934 L24.7857698,20.5399495 L18.4652722,4.16159934 C16.1077913,-1.9461874 7.20375829,-1.06630191 6.08761452,5.38449104 L1.40522658,32.4482303 L9.34578104,32.4482303 C10.4281736,32.4482303 11.353584,31.6692059 11.5380381,30.6025115 L13.997165,16.3873767 L24.7857698,44.3729941 L35.5743747,16.3873767 L38.0335016,30.6025115 C38.2183482,31.6692059 39.1437585,32.4482303 40.2261511,32.4482303 L48.1663131,32.4482303 L43.4843176,5.38449104 C42.3681739,-1.06630191 33.4637484,-1.9461874 31.10666,4.16159934" id="Fill-42" fill="#FFD100" mask="url(#mask-2)"/>
                    </g>
                </g>
            </g>
        </g>
    </g>
</svg>